<svg xmlns="http://www.w3.org/2000/svg" width="300" height="90" viewBox="0 0 300 90"><g fill-opacity=".9" font-weight="900" letter-spacing="0" word-spacing="0"><path d="M15 34.061h11.336l2.188 13.127.199 1.59h.398l.198-1.59 3.183-13.127h5.966l3.182 13.127.2 1.59h.397l.199-1.59 2.784-22.673h10.74l-6.365 33.412H38.07l-2.585-9.944-2.586 9.944H21.762L15 34.061zm42.188 13.524q0-1.392.636-2.267.637-.915 1.75-.915h9.149v4.376h-1.79q0 1.352.835 2.068.875.716 2.148.716 3.182 0 3.182-5.569 0-5.568-5.966-5.568-2.784 0-7.16 1.59l-2.386-5.966q.517-.318 1.511-.756 1.034-.477 4.336-1.233 3.301-.795 6.881-.795 6.364 0 9.944 3.42 3.58 3.382 3.58 9.308 0 5.41-3.858 9.07-3.819 3.659-10.064 3.659-5.688 0-9.228-2.824-3.5-2.864-3.5-8.314zm56.638-13.524v23.866h-10.342V53.87q-2.705 4.455-7.955 4.455-3.938 0-6.365-2.426-2.386-2.427-2.386-6.723V34.061h11.137V46.79q0 1.75.477 2.466.478.716 1.512.716 1.949 0 2.784-2.665V34.061h11.138zm6.395 20.724q-3.182-3.54-3.182-8.79 0-5.251 3.023-8.791 3.063-3.54 8.114-3.54 4.137 0 7.558 4.972V34.06h10.342v23.866h-10.74V44.642q-.676-1.273-2.029-2.347-1.352-1.074-2.346-1.074-1.154 0-1.99 1.273-.795 1.233-.795 3.5 0 2.268 1.034 3.54 1.035 1.234 2.546 1.234.597 0 1.193-.2v6.564q-1.83 1.193-4.375 1.193-5.17 0-8.353-3.54zm12.766-29.475q0-1.67 1.233-2.625 1.233-.954 3.142-.954h9.149v5.568h-6.166l.995 2.387h-6.961q-1.392-2.148-1.392-4.375z" style="line-height:125%;-inkscape-font-specification:'BoonTook, Heavy';text-align:start" fill="#1a1a1a" font-family="BoonTook"/><path d="M149.892 48.779V35.653q0-.637.437-1.114.477-.477 1.154-.477h7.955q.676 0 1.114.477.477.477.477 1.114V48.38q0 2.784 2.784 2.784 2.785 0 2.785-2.784V35.653q0-.637.437-1.114.477-.477 1.154-.477h7.955q.676 0 1.114.477.477.477.477 1.114v13.126q0 4.852-3.7 7.398-3.698 2.546-10.222 2.546-6.523 0-10.222-2.546-3.7-2.546-3.7-7.398zm16.501 12.728q0-.477.357-.835.358-.358.836-.358h6.364q1.074 0 1.75.636.637.676.637 1.75v5.171q0 .478-.358.836t-.836.358h-5.568q-.478 0-.836-.358t-.358-.836v-2.784h-.795q-.478 0-.836-.358-.357-.358-.357-.835v-2.387zm13.921-23.667q0-.716.796-1.193.238-.12.676-.358.477-.239 1.91-.795 1.47-.597 2.943-1.035 1.511-.477 3.699-.835 2.187-.358 4.296-.358 6.523 0 10.222 2.546 3.7 2.545 3.7 7.398v5.966q0 2.387 1.988 2.387 1.989 0 1.989-2.387V35.653q0-.637.477-1.114.477-.477 1.114-.477h7.557q.637 0 1.114.477.477.477.477 1.114v13.921q0 4.097-3.102 6.643-3.103 2.506-9.626 2.506t-9.626-2.506q-3.102-2.546-3.102-6.643V43.21q0-1.472-.756-2.108-.716-.676-2.426-.676-1.154 0-2.467.159 1.273 1.114 1.273 3.023v8.353h1.194q.477 0 .835.358t.358.835v3.58q0 .477-.358.835t-.835.358h-7.16q-2.228 0-3.302-.994-1.074-1.034-1.074-2.586V43.21q0-1.074-.477-1.074-.398.08-.517.08-.517 0-.795-.796l-.796-2.585q-.199-.677-.199-.995zm19.49 26.85q0-.399.2-.796l1.392-3.182q.198-.597.994-.597.278 0 .795.199 3.183 1.59 7.359 1.59 4.177 0 7.359-1.59.517-.2.795-.2.796 0 .995.598l1.392 3.182q.199.397.199.795 0 .716-.796 1.034-1.511.637-2.227.915-.677.318-2.984.756-2.267.477-4.733.477-2.466 0-4.773-.477-2.267-.438-2.983-.756-.677-.278-2.188-.915-.796-.318-.796-1.034zm26.284-26.85q0-.716.795-1.193.239-.12.677-.358.477-.239 1.909-.795 1.471-.597 2.943-1.035 1.512-.477 3.7-.835 2.187-.358 4.295-.358 6.523 0 10.223 2.546 3.699 2.545 3.699 7.398v13.126q0 .637-.477 1.114-.478.477-1.114.477h-7.558q-.636 0-1.113-.477-.478-.477-.478-1.114V43.21q0-1.472-.755-2.108-.716-.676-2.427-.676-1.153 0-2.466.159 1.273 1.114 1.273 3.023v8.353h1.193q.478 0 .836.358.357.358.357.835v3.58q0 .477-.357.835-.358.358-.836.358h-7.16q-2.227 0-3.3-.994-1.075-1.034-1.075-2.586V43.21q0-1.074-.437-1.074-.478.08-.557.08-.517 0-.796-.796l-.795-2.585q-.2-.677-.2-.995zm5.612-8.552v-3.58q0-.477.358-.835t.835-.358h6.762q1.313 0 2.427 1.67-.04-.158-.04-.476 0-2.148 1.511-3.461 1.512-1.313 4.057-1.313 2.546 0 4.058 1.313 1.511 1.313 1.511 3.46 0 2.148-1.511 3.461-1.512 1.313-4.058 1.313h-14.717q-.477 0-.835-.358t-.358-.836zm14.757-4.733q-.438.398-.438 1.154 0 .755.438 1.193.437.398 1.153.398t1.154-.398q.437-.438.437-1.193 0-.756-.437-1.154-.438-.437-1.154-.437t-1.153.437zm10.302 13.285q0-.716.795-1.193.24-.12.677-.358.477-.239 1.909-.795 1.472-.597 2.943-1.035 1.512-.477 3.7-.835 2.187-.358 4.295-.358 6.524 0 10.223 2.546Q285 38.357 285 43.21v13.126q0 .637-.477 1.114-.478.477-1.114.477h-7.558q-.636 0-1.113-.477-.478-.477-.478-1.114V43.21q0-1.472-.755-2.108-.716-.676-2.427-.676-.954 0-2.307.12 1.512 1.232 1.512 3.062v12.728q0 .637-.477 1.114-.478.477-1.114.477h-7.558q-.636 0-1.113-.477-.478-.477-.478-1.114V43.21q0-.915-.318-1.114-.08 0-.239.04-.159.04-.278.08h-.16q-.516 0-.795-.796l-.795-2.585q-.2-.677-.2-.995z" style="line-height:125%;-inkscape-font-specification:'BoonTook Mon, Heavy';text-align:start" fill="#fff" font-size="47.731" font-family="BoonTook Mon"/></g></svg>