<?xml version="1.0" encoding="UTF-8" standalone="no"?>
<svg
   xmlns:dc="http://purl.org/dc/elements/1.1/"
   xmlns:cc="http://creativecommons.org/ns#"
   xmlns:rdf="http://www.w3.org/1999/02/22-rdf-syntax-ns#"
   xmlns:svg="http://www.w3.org/2000/svg"
   xmlns="http://www.w3.org/2000/svg"
   xmlns:sodipodi="http://sodipodi.sourceforge.net/DTD/sodipodi-0.dtd"
   xmlns:inkscape="http://www.inkscape.org/namespaces/inkscape"
   width="1200"
   height="630"
   viewBox="0 0 1200 630"
   id="svg2"
   version="1.1"
   inkscape:version="0.91 r13725"
   sodipodi:docname="boontook-cover.svg"
   inkscape:export-filename="/home/i/repos/fontuni/fontuni.github.io/_fonts/boontook/images/boontook-cover.png"
   inkscape:export-xdpi="90"
   inkscape:export-ydpi="90">
  <metadata
     id="metadata14">
    <rdf:RDF>
      <cc:Work
         rdf:about="">
        <dc:format>image/svg+xml</dc:format>
        <dc:type
           rdf:resource="http://purl.org/dc/dcmitype/StillImage" />
        <dc:title></dc:title>
      </cc:Work>
    </rdf:RDF>
  </metadata>
  <defs
     id="defs12" />
  <sodipodi:namedview
     pagecolor="#ffffff"
     bordercolor="#666666"
     borderopacity="1"
     objecttolerance="10"
     gridtolerance="10"
     guidetolerance="10"
     inkscape:pageopacity="0"
     inkscape:pageshadow="2"
     inkscape:window-width="1366"
     inkscape:window-height="718"
     id="namedview10"
     showgrid="false"
     inkscape:zoom="0.19"
     inkscape:cx="581.14467"
     inkscape:cy="320.53019"
     inkscape:window-x="0"
     inkscape:window-y="24"
     inkscape:window-maximized="1"
     inkscape:current-layer="layer2"
     inkscape:showpageshadow="false"
     showborder="false" />
  <g
     inkscape:groupmode="layer"
     id="layer1"
     inkscape:label="back"
     sodipodi:insensitive="true">
    <path
       style="fill:#ff6600;fill-opacity:1;stroke:none"
       d="m 0,4e-5 1200,0 L 1200,630 0,630 Z"
       id="rect3384"
       inkscape:connector-curvature="0" />
  </g>
  <g
     inkscape:groupmode="layer"
     id="layer2"
     inkscape:label="fore">
    <g
       id="g4193"
       transform="translate(0,15)">
      <path
         d="m 150,168.32 37.78667,0 7.29333,43.75667 0.66333,5.3 1.32667,0 0.66,-5.3 10.61,-43.75667 19.88667,0 10.60666,43.75667 0.66667,5.3 1.32333,0 0.66334,-5.3 9.28,-75.57667 35.79999,0 -21.21666,111.37333 -38.45,0 -8.61667,-33.14666 -8.62,33.14666 -37.12333,0 L 150,168.32 Z m 140.62666,45.08 q 0,-4.64 2.12,-7.55667 2.12334,-3.05 5.83334,-3.05 l 30.49666,0 0,14.58667 -5.96666,0 q 0,4.50667 2.78333,6.89333 2.91667,2.38667 7.16,2.38667 10.60667,0 10.60667,-18.56333 0,-18.56 -19.88667,-18.56 -9.28,0 -23.86667,5.3 L 291.95333,174.95 q 1.72333,-1.06 5.03667,-2.52 3.44666,-1.59 14.45333,-4.11 11.00333,-2.65 22.93667,-2.65 21.21333,0 33.14666,11.4 11.93334,11.27333 11.93334,31.02667 0,18.03333 -12.86,30.23333 -12.73,12.19667 -33.54667,12.19667 -18.96,0 -30.76,-9.41334 Q 290.62666,231.56667 290.62666,213.4 Z M 479.42,168.32 l 0,79.55333 -34.47334,0 0,-13.52333 Q 435.93,249.2 418.43,249.2 q -13.12667,0 -21.21667,-8.08667 -7.95333,-8.09 -7.95333,-22.41 l 0,-50.38333 37.12333,0 0,42.43 q 0,5.83333 1.59,8.22 1.59333,2.38667 5.04,2.38667 6.49667,0 9.28,-8.88334 l 0,-44.15333 37.12667,0 z m 21.31666,69.08 Q 490.13,225.6 490.13,208.1 q 0,-17.50333 10.07666,-29.30333 10.21,-11.8 27.04667,-11.8 13.79,0 25.19333,16.57333 l 0,-15.25333 34.47334,0 0,79.55333 -35.8,0 0,-44.28 q -2.25334,-4.24333 -6.76334,-7.82333 -4.50666,-3.58 -7.82,-3.58 -3.84666,0 -6.63333,4.24333 -2.65,4.11 -2.65,11.66667 0,7.56 3.44667,11.8 3.45,4.11333 8.48666,4.11333 1.99,0 3.97667,-0.66667 l 0,21.88 q -6.1,3.97667 -14.58333,3.97667 -17.23334,0 -27.84334,-11.8 z M 543.29,139.15 q 0,-5.56666 4.11,-8.75 4.11,-3.18 10.47333,-3.18 l 30.49667,0 0,18.56 -20.55334,0 3.31667,7.95667 -23.20333,0 q -4.64,-7.16 -4.64,-14.58333 z"
         style="font-weight:900;line-height:125%;font-family:BoonTook;-inkscape-font-specification:'BoonTook, Heavy';text-align:start;letter-spacing:0;word-spacing:0;fill:#000000;fill-opacity:0.9"
         id="path6"
         inkscape:connector-curvature="0" />
      <path
         d="m 599.64,217.38 0,-43.75333 q 0,-2.12334 1.45666,-3.71334 1.59,-1.59 3.84667,-1.59 l 26.51666,0 q 2.25334,0 3.71334,1.59 1.59,1.59 1.59,3.71334 l 0,42.42333 q 0,9.28 9.28,9.28 9.28333,0 9.28333,-9.28 l 0,-42.42333 q 0,-2.12334 1.45667,-3.71334 1.59,-1.59 3.84666,-1.59 l 26.51667,0 q 2.25333,0 3.71333,1.59 1.59,1.59 1.59,3.71334 l 0,43.75333 q 0,16.17333 -12.33333,24.66 -12.32667,8.48667 -34.07333,8.48667 -21.74334,0 -34.07334,-8.48667 -12.33333,-8.48667 -12.33333,-24.66 z m 55.00333,42.42667 q 0,-1.59 1.19,-2.78334 1.19333,-1.19333 2.78666,-1.19333 l 21.21334,0 q 3.58,0 5.83333,2.12 2.12333,2.25333 2.12333,5.83333 l 0,17.23667 q 0,1.59333 -1.19333,2.78667 Q 685.40333,285 683.80999,285 l -18.56,0 q -1.59333,0 -2.78666,-1.19333 -1.19334,-1.19334 -1.19334,-2.78667 l 0,-9.28 -2.65,0 q -1.59333,0 -2.78666,-1.19333 -1.19,-1.19334 -1.19,-2.78334 l 0,-7.95666 z m 46.40333,-78.89 q 0,-2.38667 2.65333,-3.97667 0.79334,-0.4 2.25334,-1.19333 1.59,-0.79667 6.36666,-2.65 4.9,-1.99 9.81,-3.45 5.03667,-1.59 12.33,-2.78334 7.29,-1.19333 14.32,-1.19333 21.74334,0 34.07334,8.48667 12.33333,8.48333 12.33333,24.66 l 0,19.88666 q 0,7.95667 6.62667,7.95667 6.63,0 6.63,-7.95667 l 0,-45.07666 q 0,-2.12334 1.59,-3.71334 1.59,-1.59 3.71333,-1.59 l 25.19,0 q 2.12333,0 3.71333,1.59 1.59,1.59 1.59,3.71334 l 0,46.40333 q 0,13.65667 -10.34,22.14333 -10.34333,8.35334 -32.08666,8.35334 -21.74334,0 -32.08667,-8.35334 -10.34,-8.48666 -10.34,-22.14333 l 0,-21.21333 q 0,-4.90667 -2.52,-7.02667 -2.38667,-2.25333 -8.08667,-2.25333 -3.84666,0 -8.22333,0.53 4.24333,3.71333 4.24333,10.07666 l 0,27.84334 3.98,0 q 1.59,0 2.78334,1.19333 1.19333,1.19333 1.19333,2.78333 l 0,11.93334 q 0,1.59 -1.19333,2.78333 -1.19334,1.19333 -2.78334,1.19333 l -23.86666,0 q -7.42667,0 -11.00667,-3.31333 -3.58,-3.44667 -3.58,-8.62 l 0,-37.12333 q 0,-3.58 -1.59,-3.58 -1.32667,0.26666 -1.72333,0.26666 -1.72334,0 -2.65,-2.65333 l -2.65334,-8.61667 q -0.66333,-2.25666 -0.66333,-3.31666 z m 64.96667,89.5 q 0,-1.33 0.66666,-2.65334 l 4.64,-10.60666 q 0.66,-1.99 3.31334,-1.99 0.92666,0 2.65,0.66333 10.61,5.3 24.53,5.3 13.92333,0 24.53,-5.3 1.72333,-0.66667 2.65,-0.66667 2.65333,0 3.31666,1.99334 l 4.64,10.60666 q 0.66334,1.32334 0.66334,2.65 0,2.38667 -2.65334,3.44667 -5.03666,2.12333 -7.42333,3.05 -2.25667,1.06 -9.94667,2.52 -7.55666,1.59 -15.77666,1.59 -8.22,0 -15.91,-1.59 -7.55667,-1.46 -9.94334,-2.52 -2.25666,-0.92667 -7.29333,-3.05 -2.65333,-1.06 -2.65333,-3.44667 z m 87.61333,-89.5 q 0,-2.38667 2.65,-3.97667 0.79667,-0.4 2.25667,-1.19333 1.59,-0.79667 6.36333,-2.65 4.90333,-1.99 9.81,-3.45 5.04,-1.59 12.33333,-2.78334 7.29,-1.19333 14.31667,-1.19333 21.74333,0 34.07666,8.48667 12.33,8.48333 12.33,24.66 l 0,43.75333 q 0,2.12333 -1.59,3.71333 -1.59333,1.59 -3.71333,1.59 l -25.19333,0 q -2.12,0 -3.71,-1.59 -1.59333,-1.59 -1.59333,-3.71333 l 0,-43.75333 q 0,-4.90667 -2.51667,-7.02667 -2.38667,-2.25333 -8.09,-2.25333 -3.84333,0 -8.22,0.53 4.24333,3.71333 4.24333,10.07666 l 0,27.84334 3.97667,0 q 1.59333,0 2.78667,1.19333 1.19,1.19333 1.19,2.78333 l 0,11.93334 q 0,1.59 -1.19,2.78333 -1.19334,1.19333 -2.78667,1.19333 l -23.86667,0 q -7.42333,0 -11,-3.31333 -3.58333,-3.44667 -3.58333,-8.62 l 0,-37.12333 q 0,-3.58 -1.45667,-3.58 -1.59333,0.26666 -1.85666,0.26666 -1.72334,0 -2.65334,-2.65333 l -2.65,-8.61667 q -0.66666,-2.25666 -0.66666,-3.31666 z m 18.70667,-28.50667 0,-11.93333 q 0,-1.59 1.19333,-2.78333 1.19333,-1.19334 2.78333,-1.19334 l 22.54,0 q 4.37667,0 8.09,5.56667 -0.13333,-0.52667 -0.13333,-1.58667 0,-7.16 5.03667,-11.53666 5.04,-4.37667 13.52333,-4.37667 8.48666,0 13.52666,4.37667 5.03667,4.37666 5.03667,11.53333 0,7.16 -5.03667,11.53667 -5.04,4.37666 -13.52666,4.37666 l -49.05667,0 q -1.59,0 -2.78333,-1.19333 -1.19333,-1.19333 -1.19333,-2.78667 z m 49.19,-15.77666 q -1.46,1.32666 -1.46,3.84666 0,2.51667 1.46,3.97667 1.45666,1.32667 3.84333,1.32667 2.38667,0 3.84667,-1.32667 1.45666,-1.46 1.45666,-3.97667 0,-2.52 -1.45666,-3.84666 -1.46,-1.45667 -3.84667,-1.45667 -2.38667,0 -3.84333,1.45667 z m 34.33999,44.28333 q 0,-2.38667 2.65,-3.97667 0.8,-0.4 2.25667,-1.19333 1.59,-0.79667 6.36333,-2.65 4.90667,-1.99 9.81,-3.45 5.04,-1.59 12.33334,-2.78334 7.29,-1.19333 14.31664,-1.19333 21.7467,0 34.0767,8.48667 12.33,8.48333 12.33,24.66 l 0,43.75333 q 0,2.12333 -1.59,3.71333 -1.5933,1.59 -3.7133,1.59 l -25.1934,0 q -2.12,0 -3.71,-1.59 -1.5933,-1.59 -1.5933,-3.71333 l 0,-43.75333 q 0,-4.90667 -2.5167,-7.02667 -2.3866,-2.25333 -8.09,-2.25333 -3.18,0 -7.68998,0.4 5.03998,4.10666 5.03998,10.20666 l 0,42.42667 q 0,2.12333 -1.58998,3.71333 -1.59333,1.59 -3.71333,1.59 l -25.19333,0 q -2.12,0 -3.71,-1.59 -1.59334,-1.59 -1.59334,-3.71333 l 0,-43.75333 q 0,-3.05 -1.06,-3.71334 -0.26666,0 -0.79666,0.13334 -0.53,0.13333 -0.92667,0.26666 l -0.53333,0 q -1.72,0 -2.65,-2.65333 l -2.65,-8.61667 q -0.66667,-2.25666 -0.66667,-3.31666 z"
         style="font-weight:900;font-size:47.73099899px;line-height:125%;font-family:'BoonTook Mon';-inkscape-font-specification:'BoonTook Mon, Heavy';text-align:start;letter-spacing:0;word-spacing:0;fill:#ffffff;fill-opacity:0.95"
         font-size="47.731"
         id="path8"
         inkscape:connector-curvature="0" />
    </g>
    <text
       xml:space="preserve"
       style="font-style:normal;font-weight:normal;font-size:86.87018585px;line-height:125%;font-family:sans-serif;letter-spacing:0px;word-spacing:0px;fill:#ffffff;fill-opacity:0.95;stroke:none;stroke-width:1px;stroke-linecap:butt;stroke-linejoin:miter;stroke-opacity:1"
       x="145.65649"
       y="444.73029"
       id="text3387"
       sodipodi:linespacing="125%"><tspan
         sodipodi:role="line"
         id="tspan3389"
         x="145.65649"
         y="444.73029"
         style="font-style:normal;font-variant:normal;font-weight:normal;font-stretch:normal;font-family:BoonTook;-inkscape-font-specification:BoonTook;fill:#ffffff;fill-opacity:0.95">แข็งแกร่งที่สุดในปฐพี!!!</tspan></text>
  </g>
</svg>
