<svg xmlns="http://www.w3.org/2000/svg" width="350" height="350" viewBox="0 0 350 350"><g letter-spacing="0" word-spacing="0" fill="#fff" fill-opacity=".9"><path d="M37 297.802V277.98q0-.61.457-1.067.458-.458 1.068-.458h6.861q.61 0 1.067.458.458.457.458 1.067v2.364q2.592-4.27 7.624-4.27 3.773 0 6.06 2.325 2.326 2.326 2.326 6.443v12.96q0 .61-.458 1.067-.457.458-1.067.458h-7.624q-.61 0-1.067-.458-.457-.457-.457-1.067v-10.673q0-1.678-.458-2.364-.457-.686-1.448-.686-1.868 0-2.669 2.554v11.169q0 .61-.457 1.067-.458.458-1.067.458h-7.624q-.61 0-1.068-.458-.457-.457-.457-1.067zm4.795-25.921v-3.43q0-.458.343-.801t.8-.343h7.624q.953 0 1.715.381.763.381 1.03.762l.304.382V265.4q0-.457.344-.8.343-.344.8-.344h5.337q.457 0 .8.343.343.344.343.801v6.48q0 .458-.343.8-.343.344-.8.344H42.938q-.457 0-.8-.343t-.343-.8zm12.198-10.291v-5.719q0-.457.343-.8t.8-.343h4.574q.458 0 .801.343t.343.8v5.718q0 .458-.343.8-.343.344-.8.344h-4.575q-.457 0-.8-.343t-.343-.8zm13.989 36.098q-2.173-2.02-2.173-5.223 0-3.202 2.173-5.222 2.173-2.02 6.214-2.02 4.345 0 6.861 2.249v-1.868q0-3.05-4.955-3.05-2.86 0-5.337.953-1.487.572-1.868.572-.495 0-.953-1.143l-1.182-3.05q-.19-.457-.19-.953 0-.8.762-1.143 5.032-2.097 11.436-2.097 3.507 0 6.175 1.449.991-1.373.991-2.593 0-.457.343-.8t.8-.343h5.223q.458 0 .8.343.344.343.344.8 0 1.754-1.068 3.393-1.029 1.64-2.897 2.82 1.868 1.945 1.868 4.46v12.58q0 .61-.457 1.067-.458.458-1.068.458h-7.242q-.61 0-1.068-.458-.457-.457-.457-1.067v-6.404q-1.067-.839-2.668-.839-.991 0-1.64.496-.647.457-.647 1.41 0 .991.571 1.449.572.457 1.335.457.343 0 .686-.076.38-.114.457-.114.381 0 .381.572v3.05q0 .685-1.143 1.143-2.02.762-4.193.762-4.041 0-6.214-2.02zm13.051 5.069q0-.457.343-.8t.8-.343h6.1q1.029 0 1.677.61.61.648.61 1.677v4.955q0 .458-.343.8-.343.344-.8.344h-5.337q-.458 0-.8-.343-.344-.343-.344-.8v-2.669h-.762q-.458 0-.8-.343-.344-.343-.344-.8v-2.288zm13.723-14.866q0-5.146 3.85-8.653 3.85-3.545 10.635-3.545 6.061 0 9.492 2.745 3.469 2.744 3.469 6.785v12.579q0 .61-.458 1.067-.457.458-1.067.458h-7.243q-.61 0-1.067-.458-.458-.457-.458-1.067v-12.198q0-.839-.724-1.563-.686-.724-1.944-.724-1.791 0-2.82 1.181-.992 1.144-.992 3.393 0 2.25.991 3.43.991 1.144 2.059 1.144.38 0 .762-.076l.381-.114q.382 0 .382.572v4.955q0 .877-1.144 1.334-1.601.572-3.05.572-4.955 0-8.005-3.393-3.049-3.392-3.049-8.424zm28.584-18.183q0-.343.152-.876.686-1.983 2.973-3.47 2.287-1.486 5.641-1.486 3.622 0 5.985 1.868 2.402 1.83 2.402 4.612 0 1.449-.496 2.707-.457 1.22-1.03 2.02-.57.763-1.066 2.059-.458 1.257-.458 2.744v18.678q0 .648-.572.763-2.21.38-4.383.38-3.012 0-4.193-1.066-1.144-1.106-1.144-3.126v-15.629q0-1.372.877-2.783.915-1.41 1.982-2.363 1.067-.991 1.944-1.982.915-1.03.915-1.64 0-1.524-1.525-1.524-.953 0-1.868.724-.876.725-1.334 1.678-.229.457-.61.457-.152 0-1.143-.496l-2.478-1.41q-.572-.267-.572-.839zm44.813 8.272v19.822q0 .61-.458 1.067-.42.458-1.067.458h-6.862q-.648 0-1.105-.458-.42-.457-.42-1.067v-2.363q-2.591 4.269-7.623 4.269-3.774 0-6.1-2.325-2.286-2.326-2.286-6.442v-12.96q0-.61.42-1.068.457-.458 1.105-.458h7.623q.648 0 1.068.458.457.457.457 1.067v10.673q0 1.678.457 2.364.458.686 1.449.686 1.868 0 2.668-2.554V277.98q0-.61.42-1.067.457-.458 1.105-.458h7.624q.648 0 1.067.458.458.457.458 1.067zm3.651 12.58v-12.58q0-.61.419-1.067.457-.458 1.105-.458h7.624q.648 0 1.068.458.457.457.457 1.067v12.198q0 2.669 3.05 2.669 3.049 0 3.049-2.669v-21.346q0-.61.42-1.068.457-.457 1.105-.457h7.623q.648 0 1.068.457.457.458.457 1.068v21.727q0 4.65-3.66 7.09-3.659 2.44-10.063 2.44-6.404 0-10.063-2.44-3.66-2.44-3.66-7.09zm30.697-11.627q0-.8.763-1.143 5.031-2.097 11.054-2.097 2.707 0 4.841.953 4.841-3.164 8.5-3.164.458 0 .801.343t.343.8v4.118q0 .457-.343.8t-.8.343q-2.02 0-3.47.42 3.088 3.087 3.088 6.823 0 5.07-3.354 8.843-3.316 3.736-8.462 3.736-2.516 0-5.794-.267-1.106-.076-1.716-1.639l-2.401-5.718h-1.144q-.457 0-.8-.343t-.343-.8v-3.431q0-.458.343-.8.343-.344.8-.344h6.1q1.981 0 2.668 1.906l1.639 4.65q2.172-1.18 2.172-5.412 0-2.402-1.372-3.66-1.372-1.296-3.964-1.296-2.554 0-4.956.763-.152.038-.571.229-.382.152-.725.266-.343.077-.572.077-.495 0-.952-1.144l-1.182-2.859q-.19-.457-.19-.953zm.19 27.636q0-.267.306-.876l1.486-2.516q.42-.8.877-.8.153 0 .305.075.19.076.343.19l.115.115q1.257.763 2.287.763 2.325 0 4.002-1.525.458-.381.763-.381h2.096q.381 0 .762.38l3.24 2.898v-2.135q0-.457.344-.8.343-.343.8-.343h4.574q.458 0 .8.343.344.343.344.8v4.575q0 .457-.343.8t-.8.343h-6.862q-.534 0-.953-.381l-2.135-1.868q-3.05 2.63-6.823 2.63-2.935 0-4.955-1.524-.572-.42-.572-.763zm27.47-29.351q0-.763 1.716-.763h7.623q1.449 0 1.716 1.525l1.715 11.055.19 1.524h.382l.19-1.524 2.669-11.055q.152-.8.457-1.143.305-.382 1.067-.382h3.431q.763 0 1.067.382.305.343.458 1.143l2.668 11.055.19 1.524h.382l.19-1.524 1.716-11.055q.267-1.525 1.715-1.525h7.624q1.715 0 1.715.763 0 .305-.19.762l-5.718 19.822q-.42 1.525-1.715 1.525h-8.005q-1.22 0-1.716-1.525l-2.096-8.005-2.097 8.005q-.495 1.525-1.715 1.525h-8.005q-1.296 0-1.715-1.525l-5.718-19.822q-.19-.457-.19-.762zm13.532-5.337v-3.43q0-.458.343-.801.344-.343.8-.343h7.625q.953 0 1.715.381.762.381 1.03.762l.304.382V265.4q0-.457.343-.8.343-.344.8-.344h5.337q.458 0 .8.343.344.344.344.801v6.48q0 .458-.343.8-.343.344-.8.344h-17.154q-.457 0-.8-.343-.344-.343-.344-.8zm28.285-3.049q0-.648.419-1.068.42-.457 1.03-.457h7.623q.61 0 1.03.457.418.42.418 1.068l-.99 18.678q0 .648-.458 1.105-.42.42-1.03.42h-5.565q-.61 0-1.067-.42-.42-.457-.42-1.105l-.99-18.678zm.686 29.351v-5.336q0-.458.343-.801t.8-.343h6.862q.457 0 .8.343t.343.8v5.337q0 .458-.343.8-.343.344-.8.344h-6.862q-.457 0-.8-.343t-.343-.8zm14.591-29.351q0-.648.42-1.068.418-.457 1.028-.457h7.624q.61 0 1.03.457.419.42.419 1.068l-.991 18.678q0 .648-.458 1.105-.42.42-1.03.42h-5.564q-.61 0-1.068-.42-.419-.457-.419-1.105l-.991-18.678zm.686 29.351v-5.336q0-.458.343-.801t.8-.343h6.862q.457 0 .8.343.344.343.344.8v5.337q0 .458-.344.8-.343.344-.8.344h-6.861q-.458 0-.8-.343-.344-.343-.344-.8zm14.591-29.351q0-.648.42-1.068.419-.457 1.029-.457h7.623q.61 0 1.03.457.419.42.419 1.068l-.991 18.678q0 .648-.458 1.105-.419.42-1.029.42h-5.565q-.61 0-1.067-.42-.42-.457-.42-1.105l-.99-18.678zm.686 29.351v-5.336q0-.458.343-.801t.8-.343h6.862q.458 0 .8.343.344.343.344.8v5.337q0 .458-.343.8-.343.344-.8.344h-6.862q-.458 0-.8-.343-.344-.343-.344-.8z" style="-inkscape-font-specification:'BoonTook Mon'" font-weight="400" font-size="45.743" font-family="BoonTook Mon"/><path d="M37.407 88.138V61.276q0-1.302.895-2.279.977-.977 2.36-.977h16.28q1.384 0 2.28.977.976.977.976 2.28v26.047q0 5.697 5.698 5.697t5.698-5.697V61.276q0-1.302.895-2.279.977-.977 2.361-.977h16.28q1.383 0 2.279.977.976.977.976 2.28v26.86q0 9.931-7.57 15.14-7.57 5.21-20.919 5.21t-20.919-5.21q-7.57-5.209-7.57-15.14zm33.767 26.047q0-.977.733-1.71.733-.732 1.71-.732H86.64q2.198 0 3.581 1.302 1.303 1.384 1.303 3.582v10.581q0 .977-.733 1.71-.732.732-1.71.732H77.687q-.977 0-1.71-.732-.732-.733-.732-1.71v-5.697h-1.628q-.976 0-1.71-.733-.732-.733-.732-1.71v-4.883zm28.49-48.432q0-1.465 1.628-2.442.488-.244 1.383-.732.977-.489 3.907-1.628 3.012-1.221 6.024-2.117 3.093-.976 7.57-1.709 4.477-.733 8.79-.733 13.35 0 20.92 5.21 7.57 5.21 7.57 15.14v12.21q0 4.883 4.07 4.883t4.07-4.883V61.276q0-1.302.977-2.279.976-.977 2.279-.977h15.465q1.303 0 2.28.977.976.977.976 2.28v28.488q0 8.384-6.349 13.594-6.349 5.128-19.698 5.128-13.35 0-19.698-5.128-6.35-5.21-6.35-13.594V76.742q0-3.012-1.546-4.314-1.465-1.384-4.965-1.384-2.36 0-5.047.326 2.605 2.279 2.605 6.186v17.093h2.442q.977 0 1.71.733.732.733.732 1.71v7.325q0 .977-.733 1.71-.732.732-1.71.732h-14.65q-4.56 0-6.757-2.035-2.198-2.116-2.198-5.29V76.741q0-2.198-.976-2.198-.814.163-1.059.163-1.058 0-1.627-1.628l-1.628-5.29q-.407-1.385-.407-2.036zm39.884 54.944q0-.814.407-1.628l2.85-6.512q.406-1.221 2.034-1.221.57 0 1.628.407 6.512 3.256 15.059 3.256t15.058-3.256q1.059-.407 1.628-.407 1.628 0 2.035 1.22l2.85 6.513q.406.814.406 1.628 0 1.465-1.628 2.116-3.093 1.302-4.558 1.872-1.384.651-6.105 1.547-4.64.976-9.686.976-5.047 0-9.768-.976-4.64-.896-6.105-1.547-1.383-.57-4.477-1.872-1.628-.651-1.628-2.116zm53.787-54.944q0-1.465 1.628-2.442.488-.244 1.383-.732.977-.489 3.907-1.628 3.012-1.221 6.024-2.117 3.093-.976 7.57-1.709 4.477-.733 8.79-.733 13.35 0 20.92 5.21 7.57 5.21 7.57 15.14v26.861q0 1.302-.977 2.28-.977.976-2.279.976h-15.465q-1.303 0-2.28-.977-.976-.977-.976-2.279V76.742q0-3.012-1.547-4.314-1.465-1.384-4.965-1.384-2.36 0-5.047.326 2.605 2.279 2.605 6.186v17.093h2.442q.977 0 1.71.733.732.733.732 1.71v7.325q0 .977-.733 1.71-.732.732-1.71.732h-14.65q-4.56 0-6.757-2.035-2.198-2.116-2.198-5.29V76.741q0-2.198-.895-2.198-.977.163-1.14.163-1.058 0-1.627-1.628l-1.628-5.29q-.407-1.385-.407-2.036zm11.485-17.5v-7.326q0-.977.732-1.71.732-.732 1.71-.732h13.837q2.686 0 4.965 3.419-.081-.326-.081-.977 0-4.396 3.093-7.082t8.302-2.686q5.21 0 8.303 2.686 3.093 2.686 3.093 7.082 0 4.395-3.093 7.081-3.093 2.687-8.303 2.687h-30.117q-.977 0-1.71-.733-.732-.733-.732-1.71zm30.198-9.687q-.895.814-.895 2.36 0 1.547.895 2.443.895.814 2.36.814 1.466 0 2.36-.814.896-.896.896-2.442 0-1.547-.895-2.36-.895-.896-2.36-.896-1.466 0-2.361.895zM256.1 65.753q0-1.465 1.628-2.442.488-.244 1.384-.732.976-.489 3.907-1.628 3.011-1.221 6.023-2.117 3.093-.976 7.57-1.709 4.477-.733 8.791-.733 13.35 0 20.92 5.21 7.57 5.21 7.57 15.14v26.861q0 1.302-.977 2.28-.977.976-2.28.976h-15.465q-1.303 0-2.28-.977-.976-.977-.976-2.279V76.742q0-3.012-1.547-4.314-1.465-1.384-4.965-1.384-1.953 0-4.721.244 3.093 2.524 3.093 6.268v26.047q0 1.302-.977 2.28-.976.976-2.279.976h-15.465q-1.303 0-2.28-.977-.976-.977-.976-2.279V76.742q0-1.872-.651-2.28-.163 0-.489.082-.325.082-.57.163h-.325q-1.058 0-1.628-1.628l-1.628-5.29q-.407-1.385-.407-2.036z" style="-inkscape-font-specification:'BoonTook Mon Heavy'" font-weight="900" font-size="97.677" font-family="BoonTook Mon"/><path d="M56.517 239.826V212.72h14.638v32.529q-3.361.542-7.048.542-4.283 0-5.963-1.518-1.627-1.572-1.627-4.446zm-19.517 0V212.72h14.638v32.529q-3.361.542-7.048.542-4.283 0-5.964-1.518Q37 242.7 37 239.826zm40.119-6.506q0-2.818 1.084-5.53 1.084-2.71 2.169-4.011l1.084-1.301h-4.337v-9.759h11.385q6.505 0 6.505 6.506 0 2.169-1.626 6.777-1.626 4.608-1.626 7.319 0 1.626.867 2.44.922.813 2.385.813 3.253 0 3.253-3.253v-20.602H112.9v20.602q0 6.56-4.716 9.813-4.717 3.198-13.175 3.198-8.349 0-13.12-3.307-4.77-3.307-4.77-9.704zm10.338-26.781q-2.494-2.44-2.494-6.018t2.494-5.964q2.44-2.44 6.993-2.44h15.451v6.235H96.62q-1.193 0-1.952.597-.759.542-.759 1.572t.76 1.626q.758.543 1.95.543 2.224 0 2.712-1.898h7.86l3.254 7.048v.542h-8.133l-1.3-3.307q-1.736 3.85-6.56 3.85-4.555 0-6.994-2.386zm28.408 6.181h14.096l6.234 23.854q2.277 0 3.687-2.006 1.464-2.06 1.464-5.584 0-3.09-1.247-4.771-1.247-1.735-3.09-1.735-.814 0-1.627.271l-2.168-8.945q2.493-1.627 7.048-1.627 6.993 0 11.06 4.825 4.12 4.771 4.12 11.982 0 7.264-5.205 12.035-5.15 4.771-14.313 4.771-2.548 0-4.987-.163-2.44-.108-3.579-.27l-1.192-.11-10.301-32.528zm64.032 27.106V212.72h14.638v32.529q-3.361.542-7.048.542-4.283 0-5.963-1.518-1.627-1.572-1.627-4.446zm-19.517 0V212.72h14.638v32.529q-3.361.542-7.048.542-4.283 0-5.963-1.518-1.627-1.572-1.627-4.446zm38.492-22.77q.326-.216.976-.596.65-.38 2.71-1.301 2.061-.922 4.23-1.626 2.168-.705 5.313-1.302 3.198-.596 6.289-.596 8.89 0 13.933 3.47 5.042 3.47 5.042 10.084v20.059h-14.638v-20.06q0-2.005-1.03-2.873-.976-.921-3.307-.921-1.41 0-3.145.216 2.06 1.573 2.06 4.12v19.518h-14.638v-20.06q0-1.355-.596-1.463-.325.054-.867.217-.488.108-.705.162l-1.627-7.048zm73.249-1.626l-3.795 7.59q-1.464-1.138-4.337-2.06-2.873-.922-4.608-.922-2.982 0-2.982 1.627 0 1.192 2.71 2.168 3.633 1.356 4.88 1.898 7.59 3.253 7.59 9.216 0 5.15-4.175 8.295-4.174 3.09-11.005 3.09-8.62 0-14.638-3.795l3.795-7.59q1.247 1.139 3.85 2.06 2.602.922 4.282.922 3.253 0 3.253-1.626 0-.488-.434-.922-.433-.434-.921-.65-.434-.218-1.356-.597-2.33-.976-4.879-1.898-1.518-.596-2.71-1.192-1.193-.65-2.549-1.735-1.355-1.084-2.114-2.657-.76-1.626-.76-3.578 0-3.795 2.332-6.451 2.331-2.657 5.801-3.795 3.47-1.193 7.59-1.193 4.391 0 8.403 1.139 4.066 1.084 6.777 2.656zm-12.469-7.59v-12.47h10.843v12.47h-10.843zm14.663 4.88h14.096l6.234 23.854q2.278 0 3.687-2.006 1.464-2.06 1.464-5.584 0-3.09-1.247-4.771-1.247-1.735-3.09-1.735-.814 0-1.627.271l-2.168-8.945q2.494-1.627 7.048-1.627 6.993 0 11.06 4.825 4.12 4.771 4.12 11.982 0 7.264-5.205 12.035-5.15 4.771-14.313 4.771-2.548 0-4.987-.163-2.44-.108-3.578-.27l-1.193-.11-10.3-32.528z" style="-inkscape-font-specification:'BoonTook Heavy'" font-weight="900" font-size="65.057" font-family="BoonTook"/></g></svg>